<svg xmlns="http://www.w3.org/2000/svg" viewBox="0 0 54.4 58.5">
  <g fill="#00C5FF">
    <path d="M48.3,28.6l5.8-0.4c-0.6-5-2.5-9.7-5.6-13.6L44,18.3C46.3,21.3,47.8,24.8,48.3,28.6"/>
    <path d="M5.9,31.3c0-3.6,0.9-7.1,2.6-10.2l-5-3.1C1.2,22,0,26.6,0,31.3c0,0.4,0,0.7,0,1.1l5.8-0.4C5.9,31.7,5.9,31.5,5.9,31.3"/>
    <path d="M4.6,16.2l5,3.1c2.1-3.1,5.1-5.6,8.5-7.2l-2.3-5.4C11.2,8.7,7.4,12,4.6,16.2"/>
    <path d="M48.5,31.3c0,3.6-0.9,7.1-2.6,10.2l5,3.1c2.3-4.1,3.5-8.6,3.5-13.3c0-0.4,0-0.7,0-1.1l-5.8,0.4C48.4,30.9,48.4,31.1,48.5,31.3"/>
    <path d="M36.6,56.8l-2.2-5.4c-2.3,0.8-4.7,1.2-7.2,1.2c-1.3,0-2.6-0.1-3.9-0.4l-1.4,5.7C26.8,58.9,31.9,58.5,36.6,56.8"/>
    <path d="M44.7,43.3c-2.1,3.1-5,5.6-8.5,7.2l2.2,5.4c4.5-2.1,8.4-5.4,11.2-9.6L44.7,43.3z"/>
    <path d="M11.7,45.9l-4.5,3.8c3.4,3.7,7.8,6.4,12.6,7.7l1.4-5.7C17.6,50.6,14.3,48.6,11.7,45.9"/>
    <path d="M6,34l-5.8,0.4c0.6,5,2.5,9.7,5.6,13.6l4.5-3.8C8,41.3,6.5,37.7,6,34"/>
    <path d="M17.8,5.8l2.2,5.4c2.3-0.8,4.7-1.2,7.2-1.2c1.3,0,2.6,0.1,3.9,0.4l1.4-5.7C27.5,3.6,22.5,4,17.8,5.8"/>
    <path d="M45.8,11.5l4.5-3.8C46.8,4,42.5,1.4,37.7,0l-1.4,5.7C39.9,6.8,43.2,8.8,45.8,11.5"/>
    <path d="M14.4,22.2c1.5-2.1,3.5-3.8,5.8-5L19.3,15c-2.8,1.4-5.2,3.4-6.9,6L14.4,22.2z"/>
    <path d="M27.2,13.2c-2,0-4,0.3-5.9,1l0.9,2.3c1.6-0.5,3.3-0.8,5-0.8c0.9,0,1.7,0.1,2.6,0.2l0.6-2.4C29.3,13.3,28.2,13.2,27.2,13.2"/>
    <path d="M27.2,49.4c2,0,4-0.3,5.9-1l-0.9-2.3c-1.6,0.5-3.3,0.8-5,0.8c-0.9,0-1.7-0.1-2.6-0.2L24,49.1C25,49.3,26.1,49.4,27.2,49.4"/>
    <path d="M11.5,31.3c0-2.5,0.6-5,1.8-7.2l-2.1-1.3c-1.4,2.6-2.1,5.6-2.1,8.5c0,0.1,0,0.2,0,0.4l2.4-0.2C11.5,31.4,11.5,31.3,11.5,31.3"/>
    <path d="M42.8,31.3c0,2.5-0.6,5-1.8,7.2l2.1,1.3c1.4-2.6,2.1-5.6,2.1-8.5c0-0.1,0-0.2,0-0.4l-2.4,0.2C42.8,31.2,42.8,31.2,42.8,31.3"/>
    <path d="M38.3,20.3l1.9-1.6c-2.1-2.2-4.8-3.9-7.8-4.8l-0.6,2.4C34.3,17.1,36.5,18.5,38.3,20.3"/>
    <path d="M39.9,40.3c-1.5,2.1-3.5,3.8-5.8,5l0.9,2.3c2.8-1.4,5.2-3.4,7-5.9L39.9,40.3z"/>
    <path d="M16,42.2l-1.9,1.6c2.1,2.2,4.8,3.9,7.8,4.8l0.6-2.4C20,45.4,17.8,44.1,16,42.2"/>
    <path d="M11.7,33.6l-2.4,0.2c0.4,3.1,1.6,6,3.5,8.5l1.9-1.6C13.1,38.5,12.1,36.1,11.7,33.6"/>
    <path d="M42.6,29l2.4-0.2c-0.4-3.1-1.6-6-3.5-8.5l-1.9,1.6C41.2,24,42.3,26.4,42.6,29"/>
  </g>
</svg>
