<?xml version="1.0" encoding="utf-8"?>
<!-- Generator: Adobe Illustrator 26.5.0, SVG Export Plug-In . SVG Version: 6.00 Build 0)  -->
<svg version="1.1" id="Ebene_1" xmlns="http://www.w3.org/2000/svg" xmlns:xlink="http://www.w3.org/1999/xlink" x="0px" y="0px"
	 viewBox="0 0 2035.54 448.8" style="enable-background:new 0 0 2035.54 448.8;" xml:space="preserve">
<style type="text/css">
	.st0{fill:#00C5FF;}
</style>
<g id="Logo_00000160169532867695970210000012660933636711241134_">
	<g id="Logo_00000085252953620607105300000002283273150995836552_" transform="translate(0 0)">
		<path id="Pfad_1409_00000169546767472251284580000007284104115717335457_" class="st0" d="M596.92,163.31
			c-35.63,0-59.01,17.03-63.76,40.79c-14.65,67.73,126.35,23.37,116.04,106.94c-4.73,37.63-35.25,62.58-91.09,62.58
			c-53.47,0-81.59-31.69-71.3-81.58H509c-8.32,38.41,9.9,61.78,49.11,61.78c39.21,0,64.57-15.45,68.91-43.17
			c9.51-60.6-127.14-18.59-116.05-106.94c4.36-36.04,38.81-60.2,86.34-60.2c53.87,0,80.01,27.72,68.92,79.21h-21.4
			c8.72-40.4-7.92-59.41-47.93-59.41H596.92z"/>
		<path id="Pfad_1410_00000047045662196179560700000001145825400610956169_" class="st0" d="M729.3,176.78
			c11.49-17.43,29.3-32.88,58.22-32.88c28.12,0,50.3,14.65,54.66,40.79c12.68-23.37,34.86-40.79,66.14-40.79
			c40.79,0,60.6,29.31,50.71,76.84l-31.29,148.92h-22.58l32.07-152.1c7.13-34.06-4.73-55.05-36.04-55.05
			c-30.5,0-52.68,20.2-59.81,52.67l-32.49,154.47h-22.57l32.08-152.1c7.52-34.85-5.94-55.05-36.44-55.05
			c-30.09,0-53.07,19.8-60.21,52.67l-32.47,154.47h-22.18l47.12-222.6h21.39L729.3,176.78z"/>
		<path id="Pfad_1411_00000152979659032278999410000002214440955855449506_" class="st0" d="M1352.19,238.96l-9.89,45.94
			c-11.89,54.66-43.97,87.52-93.48,87.52c-35.25,0-58.62-18.59-62.98-40.39l-23.76,110.88h-21.79l62.57-295.84h21.39l-7.92,38.02
			c15.23-25.67,43.03-41.23,72.88-40.79C1339.92,144.31,1365.27,178.36,1352.19,238.96L1352.19,238.96z M1206.83,232.62l-10.7,49.9
			c-9.13,43.95,7.92,70.5,46.74,70.5c40,0,67.73-26.54,77.24-70.5l10.29-47.13c9.89-45.15-7.13-71.69-47.13-71.69
			C1245.25,163.7,1215.94,189.05,1206.83,232.62z"/>
		<path id="Pfad_1412_00000032616168173024850510000017222913705852627375_" class="st0" d="M1567.02,114.99
			c-14.69-18.13-38.46-28.11-66.93-28.11c-52.42,0-92.96,37.11-105.81,96.87l-18.64,86.59l0,0c-6.45,30.22-1.89,56.05,13.2,74.71
			c14.68,18.15,38.47,28.14,66.99,28.14c52.46,0,93.01-36.97,105.81-96.48l18.63-86.98c6.42-30.26,1.84-56.12-13.25-74.71
			L1567.02,114.99z M1457.75,332.28c-14.94,0-26.57-4.6-33.64-13.3c-8.37-10.29-10.44-25.96-6.14-46.56l19.02-89.69
			c8.74-40.52,37.31-54.95,61.14-54.95c14.91,0,26.56,4.64,33.67,13.43c8.35,10.31,10.41,25.79,6.11,46.03l-19.03,90.07
			C1510.15,317.84,1481.57,332.28,1457.75,332.28z"/>
		<path id="Pfad_1413_00000048494363147489477490000010462693273931484563_" class="st0" d="M1960.84,168.72
			c-13.12-16.28-34.74-24.88-62.52-24.88c-25.79,0-47.2,8.06-63.61,23.97c-15.45,14.95-26.25,36.6-32.12,64.36l-11.26,52.81
			c-5.32,25.65-1.27,47.63,11.69,63.55c13.26,16.29,34.53,24.9,61.53,24.9c24.68,0,46.41-7.63,62.84-22.05
			c15.34-13.86,25.78-32.32,29.75-52.61l1.06-4.29h-40.69l-1.18,5.25c-4.89,23.33-25.4,39.01-51.05,39.01
			c-12.74,0-23.24-4.29-29.56-12.1c-6.55-8.09-8.48-19.64-5.56-33.37l5.04-22.73h128.16l8.11-39.4
			c5.51-25.33,1.81-46.93-10.69-62.43L1960.84,168.72z M1844.55,225.72c6.62-30.18,25.43-46.81,52.97-46.81
			c13.97,0,24.1,3.8,30.09,11.28c6.61,8.27,8.05,20.96,4.27,37.67l-2.7,11.88h-87.56L1844.55,225.72z"/>
		<path id="Pfad_1414_00000150798045290094509280000015725426871914452868_" class="st0" d="M1718.73,144.58
			c-24.1-0.69-46.93,10.79-60.75,30.54l5.75-28.06h-41.34l-46.56,219.96l-0.57,2.66h40.62l27.94-131.84
			c8.7-42.32,24.54-58.82,56.47-58.82c13.35,0,22.52,3.31,28.03,10.14c7.1,8.79,8.29,23.78,3.59,45.85l-28.51,134.67h41
			c0,0,27.26-128.03,30.37-144.08C1784.99,172.91,1759.15,145.24,1718.73,144.58L1718.73,144.58z"/>
		<path id="Pfad_1415_00000171708388040234521210000001714474715564896169_" class="st0" d="M1109.77,329.25
			c-11.83,18.53-32.32,44.16-79.24,44.16c-43.77,0-72.16-20.9-63.48-63.88c18.93-88.32,152.98-38.64,165.98-100.54
			c5.51-25.63-10.25-44.55-47.72-44.55c-37.86,0-65.85,18.53-74.13,59.14h-21.68c11.03-53.23,43.37-79.65,96.99-79.65
			c46.92,0,79.25,21.3,69.4,68.62l-33.4,157.1h-21.3L1109.77,329.25z M1118.06,283.12l9.06-42.19
			c-29.17,37.05-124.99,9.86-137.22,67.82c-6.3,28.78,11.44,44.55,46.54,44.55C1098.74,353.31,1114.12,303.23,1118.06,283.12z"/>
		<path id="Pfad_1416_00000082360548836419934670000015065824322937989250_" class="st0" d="M370.81,219.25
			c-3.7-28.73-15-55.96-32.74-78.87l34.27-29.26c23.87,30.18,38.87,66.39,43.34,104.61L370.81,219.25z"/>
		<path id="Pfad_1417_00000141417681083664300870000001499927956971646137_" class="st0" d="M44.97,240.22
			c-0.03-27.4,6.86-54.37,20.04-78.39l-38.4-23.54C9.12,169.42-0.04,204.52,0,240.22c0,2.74,0.1,5.47,0.21,8.19l44.88-3.53
			C45.04,243.33,44.97,241.78,44.97,240.22z"/>
		<path id="Pfad_1418_00000013161440107409466680000009521301533605481392_" class="st0" d="M35.14,124.35
			c21.41-31.96,51.2-57.41,86.12-73.55L138.5,92.4c-26.14,12.47-48.53,31.61-64.91,55.5L35.14,124.35z"/>
		<path id="Pfad_1419_00000168820206810578349040000001424819548416178582_" class="st0" d="M372.2,240.22
			c0.03,27.4-6.86,54.36-20.05,78.38l38.4,23.53c17.49-31.12,26.65-66.22,26.61-101.91c0-2.75-0.1-5.48-0.21-8.19l-44.88,3.53
			C372.12,237.11,372.2,238.66,372.2,240.22L372.2,240.22z"/>
		<path id="Pfad_1420_00000180367679798153367170000016423023676121032628_" class="st0" d="M280.81,435.94
			c-36.12,13.28-75.2,16.35-112.94,8.86l10.52-43.81c28.48,5.39,57.88,3.08,85.17-6.69L280.81,435.94z"/>
		<path id="Pfad_1421_00000030465520123200420210000009708611817585967494_" class="st0" d="M343.58,332.53
			c-16.38,23.89-38.77,43.03-64.91,55.51l17.24,41.61c34.92-16.14,64.72-41.59,86.12-73.55L343.58,332.53z"/>
		<path id="Pfad_1422_00000067220380161662948420000000384747489798778012_" class="st0" d="M55.43,381.77
			c26.11,28.26,59.52,48.75,96.55,59.19l10.51-43.78c-27.78-8.21-52.89-23.63-72.77-44.7L55.43,381.77z"/>
		<path id="Pfad_1423_00000131331652527784477710000009487222110553484722_" class="st0" d="M1.48,264.72
			c4.47,38.21,19.48,74.43,43.34,104.61l34.27-29.27c-17.74-22.91-29.04-50.13-32.74-78.87L1.48,264.72z"/>
		<path id="Pfad_1424_00000131353027969945103310000006698271092738896013_" class="st0" d="M136.35,44.49
			c36.11-13.28,75.19-16.35,112.94-8.86l-10.52,43.81c-28.48-5.38-57.88-3.07-85.17,6.69L136.35,44.49z"/>
		<path id="Pfad_1425_00000170239020735381524370000017514685465665626247_" class="st0" d="M351.59,88.49
			c-19.88-21.07-44.99-36.5-72.77-44.7L289.33,0c37.03,10.44,70.45,30.93,96.56,59.19L351.59,88.49z"/>
		<path id="Pfad_1426_00000148630562660470144210000006968809149497000379_" class="st0" d="M110.63,170.61
			c11.49-16.14,26.78-29.21,44.5-38.06l-7.24-17.46c-21.39,10.42-39.76,26.13-53.38,45.64L110.63,170.61z"/>
		<path id="Pfad_1427_00000157297837989259355130000006030602058844259483_" class="st0" d="M208.58,101.16
			c-15.51,0-30.92,2.59-45.57,7.68l7.22,17.43c18.78-6.36,38.85-7.95,58.4-4.6l4.39-18.32C224.96,101.9,216.78,101.17,208.58,101.16
			L208.58,101.16z"/>
		<path id="Pfad_1428_00000181771702121816184070000000506870025394740147_" class="st0" d="M208.58,379.27
			c15.51,0,30.92-2.59,45.57-7.68l-7.22-17.43c-18.78,6.36-38.86,7.94-58.41,4.6l-4.39,18.32
			C192.21,378.53,200.39,379.26,208.58,379.27L208.58,379.27z"/>
		<path id="Pfad_1429_00000109719925633716198290000018068754161384273054_" class="st0" d="M88.33,240.22
			c-0.02-19.4,4.69-38.52,13.72-55.69l-16.12-9.88c-10.81,20.17-16.45,42.7-16.41,65.58c0,0.91,0.04,1.82,0.06,2.73l18.77-1.47
			c0-0.42-0.03-0.83-0.03-1.25L88.33,240.22z"/>
		<path id="Pfad_1430_00000154384802560396709890000003981626955133714099_" class="st0" d="M328.84,240.22
			c0.01,19.4-4.7,38.51-13.72,55.68l16.11,9.87c10.8-20.16,16.44-42.69,16.41-65.56c0-0.92-0.05-1.82-0.06-2.74l-18.77,1.48
			C328.8,239.38,328.84,239.8,328.84,240.22L328.84,240.22z"/>
		<path id="Pfad_1431_00000134933938538827378750000001833701848316494508_" class="st0" d="M294.44,156.14
			c-13.86-14.18-31-24.72-49.9-30.68l4.39-18.33c22.77,6.92,43.38,19.57,59.86,36.75L294.44,156.14z"/>
		<path id="Pfad_1432_00000068658743628683283630000018432195670175934607_" class="st0" d="M306.54,309.83
			c-11.5,16.14-26.78,29.2-44.5,38.05l7.23,17.46c21.39-10.42,39.77-26.13,53.38-45.64L306.54,309.83z"/>
		<path id="Pfad_1433_00000031902630312680218040000017008538658617515953_" class="st0" d="M108.36,336.56
			c16.48,17.17,37.09,29.82,59.86,36.75l4.39-18.33c-18.91-5.96-36.05-16.5-49.9-30.68L108.36,336.56z"/>
		<path id="Pfad_1434_00000157990825704685607270000015459580409641786515_" class="st0" d="M70.86,259.25
			c3.22,23.58,12.48,45.93,26.87,64.89l14.36-12.26c-11.85-15.89-19.56-34.48-22.45-54.09L70.86,259.25z"/>
		<path id="Pfad_1435_00000134238194086119181230000016945857125884106129_" class="st0" d="M327.54,222.65
			c-2.89-19.61-10.61-38.2-22.46-54.09l14.36-12.26c14.39,18.96,23.64,41.31,26.87,64.89L327.54,222.65z"/>
		<path id="Pfad_1436_00000054962076654643891730000010544442087638081938_" class="st0" d="M1986.45,159
			c-0.01-4.29,1.11-8.52,3.26-12.23c4.37-7.62,12.49-12.31,21.27-12.3c4.3-0.02,8.52,1.11,12.23,3.26c3.76,2.12,6.87,5.22,9.01,8.98
			c6.8,11.73,2.8,26.74-8.92,33.54c-11.73,6.8-26.74,2.8-33.54-8.92C1987.59,167.58,1986.45,163.33,1986.45,159L1986.45,159z
			 M1990.47,159c0,11.33,9.17,20.51,20.5,20.52c3.63,0,7.2-0.96,10.33-2.79c3.11-1.8,5.7-4.39,7.49-7.5
			c5.66-9.82,2.29-22.37-7.53-28.04c-6.33-3.65-14.12-3.66-20.46-0.02c-3.12,1.78-5.72,4.36-7.52,7.47
			c-1.86,3.13-2.83,6.71-2.81,10.34V159z M2020.04,153.46c0.22,3.21-1.73,6.18-4.77,7.26l7.38,12.37h-6.57l-5.98-10.78h-2.81v10.78
			h-5.89v-28.13h8.15c2.82-0.23,5.62,0.52,7.95,2.12c1.78,1.63,2.71,3.98,2.52,6.39H2020.04z M2007.3,157.79h2.15
			c1.26,0.09,2.5-0.3,3.49-1.09c0.83-0.82,1.26-1.96,1.18-3.12c0.13-1.16-0.29-2.32-1.14-3.13c-1.07-0.68-2.33-0.99-3.6-0.89h-2.09
			V157.79z"/>
	</g>
</g>
</svg>
